<svg width="800px" height="800px" viewBox="0 0 40 40" fill="none" xmlns="http://www.w3.org/2000/svg">
  <rect width="40" height="40" rx="8" fill="#FFFFFF" />
  <path d="M11.1707 28.4492C9.06523 26.2508 7.76367 23.2758 7.76367 19.9918C7.76367 13.2324 13.2434 7.75546 20 7.75546C26.7566 7.75546 32.2363 13.2324 32.2363 19.9918C32.2363 26.6828 26.8605 32.1133 20.1941 32.2172L11.4277 32.2281C11.4223 32.2254 10.9465 32.2336 10.0031 32.25C9.66406 32.2555 9.38516 31.9875 9.37969 31.6484C9.37695 31.5336 9.40977 31.4187 9.46992 31.3176C9.73242 30.8855 9.89648 30.6312 9.95938 30.5547C10.3148 29.9367 10.7359 29.2039 11.1707 28.4492Z" fill="#000000"/>
  <path d="M16.1744 16L23.3256 16C23.9742 16 24.5 16.5258 24.5 17.1744C24.5 17.8231 23.9742 18.3489 23.3256 18.3489L16.1744 18.3489C15.5258 18.3489 15 17.8231 15 17.1744C15 16.5258 15.5258 16 16.1744 16Z" fill="#B5B5B5"/>
  <path d="M16.1744 21L23.3256 21C23.9742 21 24.5 21.5258 24.5 22.1744C24.5 22.8231 23.9742 23.3489 23.3256 23.3489L16.1744 23.3489C15.5258 23.3489 15 22.8231 15 22.1744C15 21.5258 15.5258 21 16.1744 21Z" fill="#B5B5B5"/>
</svg>
